
<global>
amp_veltrack=0
</global>

<group>
amp_veltrack=0
ampeg_decay=20
ampeg_release=0.35
ampeg_sustain=0
group_label=Group_0-42
lpc_hicc1=42
lpc_locc1=0

<region>
hikey=a3
hivel=127
lokey=g#3
lovel=1
lpc=p7iEQjmeEsM0mNVCUyE5wvNbJULyltHBprXPQLhOdsFQlpVBqtoIQT9cosG0IQlBz6hVwdBBsEFsul7BfVZkQUgAn8ErvRdBoHBawJoslUA49w/BtpORQVp2gsFobbhA
lpc_rms=-20.47
pitch_keycenter=a3
sample=Alto_plop_PP_A3.opus
tune=-8
</region>

<region>
hikey=a4
hivel=127
lokey=g#4
lovel=1
lpc=3rGRQsqGUMM8pXVDU2srw3NBvUKSzEHCsmHiQWrhA8Ks7xFCam35wDKPlsFE6FFBrQJNPzbQHMEAugNBJZJEQfpk3MFcgtFB2IahwdIFbkGUh3LBrDmkQQWRsMGcei5B
lpc_rms=-19.62
offset=1147
pitch_keycenter=a4
sample=Alto_plop_PP_A4.opus
tune=-37
</region>

<region>
hikey=b3
hivel=127
lokey=a#3
lovel=1
lpc=H0cZQp+HrsJGCo9CGxz/wUX2g0GvD27BuQZHQWhRKMGUOjxBfvYgwGQje8CliIHAKOenQMv62r6cRkk+8SYcQHzu7sBIp6VAgh8fP5SBiz/lXa/AxyTiQElKvcAwHBpA
lpc_rms=-26.40
pitch_keycenter=b3
sample=Alto_plop_PP_B3.opus
tune=+10
</region>

<region>
hikey=b4
hivel=127
lokey=a#4
lovel=1
lpc=LUQBQjAmv8IAxu9Cpc6qwktRMkJnDMTBmp1SQcCrz8BfXupAMgRpwFUDgMDChY1A9jNDwO3fbkBx2YrA1EQTQZ29W8HO/SBBaXMewF1FTj9ynFTALLGXQM8nicBHQBVA
lpc_rms=-24.01
offset=1050
pitch_keycenter=b4
sample=Alto_plop_PP_B4.opus
tune=-28
</region>

<region>
hivel=127
key=c#3
lovel=1
lpc=QwtiQtfo3cLuRIlCANDjwSLqs0HdcBTBqzGUQNC7WsGu8llBIy65P/Cv7sAtxpFAHcMOwUosBEEl8ZrAKnAfQbG3J8HMCwdBVaMXweP8yECF0AvAfemFQDZ5b8BSzjU/
lpc_rms=-20.06
offset=605
sample=Alto_plop_PP_C#3.opus
tune=-16
</region>

<region>
hikey=c#4
hivel=127
lokey=c4
lovel=1
lpc=c7/EQg8nacNt2ENDgW/DwkxvY0I8laXBLvjOQKlOvcGsx95BG9wHQZ1p/sGNKUtBelgwwQYX30Giy9XBn5LAQVvj88HcEIhBqD2pvqKAe0HncPjByD/hQTVHdMGNuUZA
lpc_rms=-21.84
pitch_keycenter=c#4
sample=Alto_plop_PP_C#4.opus
tune=-18
</region>

<region>
hikey=c#5
hivel=127
lokey=c5
lovel=1
lpc=Sai4QfnWc8JK24hC1Ks4wtPD00GFw1DBVu5qQBeyoMCZ+BlBu69DwBE6tsDnV9NA+ur7wPK0K0H9vxfBQPP+QHvxyMB74JlA3U6RwPaUoED1Ar7ACXrVQHRMlMAya/g/
lpc_rms=-25.79
pitch_keycenter=c#5
sample=Alto_plop_PP_C#5.opus
tune=-43
</region>

<region>
hikey=d#3
hivel=127
lokey=d3
lovel=1
lpc=9AIeQubJsMIXXX1C4L94wX++8D9ij7Q7KNWRP3o01MBuhbxAW67EQB2UdsH6n05BvC8RwWSkw0Dgv0bAr6uPQMLucMBLrXy/kRT8PytZD8AyjmtAyvrHPtd4hsDudApA
lpc_rms=-21.44
pitch_keycenter=d#3
sample=Alto_plop_PP_D#3.opus
tune=-1
</region>

<region>
hikey=d#4
hivel=127
lokey=d4
lovel=1
lpc=RS0RQgY1n8L0VXVCX3/iwQ7tk0HDpDTBJHvCQCx4MMGlO2FB1qKtv/GQwcCzn2pApl+twFAGeEBlsJe+mMbPP3NSir8b6T6/cEhKwE/v6EBn3hzByoFOQewTNcGNXJdA
lpc_rms=-25.76
pitch_keycenter=d#4
sample=Alto_plop_PP_D#4.opus
tune=-29
</region>

<region>
hikey=d#5
hivel=127
lokey=d5
lovel=1
lpc=cPVvQWvNFcJAMS5C53vywWoRi0EOGkzBpVg7QU+4QcG+PipB3nMCwHdd0MCaOQ9BevPOwD5KuEDV1KrAMG/OQHne38A+wWtASL8yPxxCPL9+8mvAdgIIQXz/9cAg9HNA
lpc_rms=-25.17
pitch_keycenter=d#5
sample=Alto_plop_PP_D#5.opus
tune=-42
</region>

<region>
hikey=f3
hivel=127
lokey=e3
lovel=1
lpc=VpO3QXvSNMLAwO1B7AhLwYjwGkEatUDANQc6wDlQIMAIlMxAn5H0P2wPAMG1uJtAnR2VwEBm7UDyMnzAKqUyv4c9KkBUkH7Ae6iHQEnHz7+FIba/V164P/nHF7+1vgY/
lpc_rms=-28.36
pitch_keycenter=f3
sample=Alto_plop_PP_F3.opus
tune=-5
</region>

<region>
hikey=G4
hivel=127
lokey=e4
lovel=1
lpc=3TlKQvyv4cLfOLNCzxkkwqPa3UG4IqPBiigLQZ4bFsHAkj5B4b8UQBAz9cATTt4/1tZ3wPdumkCrAXfAtfyqQHig+cAnjA5ADZbTQAo8/b9VPoHAzqHaQKdFDcE3x5VA
lpc_rms=-22.73
offset=4847
pitch_keycenter=f4
sample=Alto_plop_PP_F4.opus
tune=-26
</region>

<region>
hikey=f5
hivel=127
lokey=e5
lovel=1
lpc=1K5lQTCF/sEnaABCFEemwa1iWUEQi//AhS2OQHysmsAmR+ZA2JhvwByMjL9hWeo/FzYIvp/x0T7iFHW+ur/wP1nWF8Bzx5s/UGbxP5FiA8Bn9nM+DfvJP4lUmL9dwZM/
lpc_rms=-24.50
pitch_keycenter=f5
sample=Alto_plop_PP_F5.opus
tune=-73
</region>

<region>
hikey=g3
hivel=127
lokey=f#3
lovel=1
lpc=t6wrQsLeu8J2AplC/ikzwjQ+7kE8JIbBr58hQSlKgMHUQotBFXyJPzzhDMGWPOJAexIzwTHvTEGuGCDBuvxRQRlscsEN4gNBSeSNwHxHhUDuU3HAqDTnQDOHK8Fs/K5A
lpc_rms=-22.33
offset=528
pitch_keycenter=g3
sample=Alto_plop_PP_G3.opus
tune=-5
</region>

<region>
hikey=B5
hivel=127
lokey=f#5
lovel=1
lpc=rfWaQaaJJcJLvxpCxGqTwdKUsUDKrBtAnf99wGbs+D4r0OFARRKvwEEd1r8KtclAnw2AwAIIQUCsQLA9M2sFwMLINkDLVCg/cTCEv/SEm75lRsA/fs+MQFtI5cApNpNA
lpc_rms=-20.39
pitch_keycenter=G5
sample=Alto_plop_PP_G5.opus
tune=-61
</region>
</group>

<group>
amp_veltrack=0
ampeg_decay=20
ampeg_release=0.35
ampeg_sustain=0
group_label=Group_43-84
lpc_hicc1=84
lpc_locc1=43

<region>
hikey=a3
hivel=127
lokey=g#3
lovel=1
lpc=2AYPQofPsMJazaBCcFEUwiRSo0Eb2K7Blte8QbQDA8LL0/1BSM/fwAH/OMGuXydB7i5XwFeDgD2ez8fASdCBQayZdcG81XlAC6rVP78fyMAeMD1BWtClwByJW8B1JjVA
lpc_rms=-15.41
offset=1464
pitch_keycenter=a3
sample=Alto_plop_MF_A3.opus
tune=-4
</region>

<region>
hikey=a4
hivel=127
lokey=g#4
lovel=1
lpc=TpeMQY8UNML5q0lCsoYWwjv0uUE1N27BHWBwQScRnsHMw51B1af/wOzFjsDZ9v9ARP+GwCGRiz/bMsm/AUdTQGv318C4OQRBkm6bwJzYH0B+mWLAiXeDQJrOVsDewc4/
lpc_rms=-15.21
offset=1313
pitch_keycenter=a4
sample=Alto_plop_MF_A4.opus
tune=-19
</region>

<region>
hikey=B5
hivel=127
lokey=g#5
lovel=1
lpc=WcMRQRwYh8EFnmpBAp7QwBSLS0C5ajnAEk9YQCqAgr94H9k/s7cwwKcISkDlezS/QzrPvd2oLL9AegxAmoF+PdyMe79IRz4/TZHRP+Hobb+dIZy/R7LkP7Pmgj/qXo6/
lpc_rms=-16.57
pitch_keycenter=A5
sample=Alto_plop_MF_A5.opus
tune=-64
</region>

<region>
hikey=b3
hivel=127
lokey=a#3
lovel=1
lpc=ULasQf1RRMLotyVCp6O0wQ5HlUEicFbB3FCHQN6vbMDP5w9AKf3/QFt9RcHuY6ZAaw0lwDUmrkCcw0TAff5BPr/Mmz9vNJbAqCvAQLRFmcBmi5A/KvNkQPwKK8BZ0sU+
lpc_rms=-20.67
pitch_keycenter=b3
sample=Alto_plop_MF_B3.opus
tune=+5
</region>

<region>
hikey=b4
hivel=127
lokey=a#4
lovel=1
lpc=ZpcfQby1ycFh0v5BGXzwwf7JxEHkKY7BKA1NQQtgRMHWC1NBY6UfwYTzhUDtJ8c/V8CxwI0OwkAyTZPAHA4xQKpg7b8RCg5AM+wPwBirC0Ad36y/0jouP0Kvtb5XYbc+
lpc_rms=-18.65
pitch_keycenter=b4
sample=Alto_plop_MF_B4.opus
tune=-18
</region>

<region>
hivel=127
key=c#3
lovel=1
lpc=fochQrFvzcJU8MNCQu5OwurS10GwZ3TBaqwWQTZWn8GlNNxBVYT9wPFucMEUf4pBaNZVwYTGHUGwkELAC2sbQLUj/sAtJDBAt2CoQGhzp7+A/bg+YC5JwH4H0D//yJq+
lpc_rms=-13.63
offset=3
sample=Alto_plop_MF_C#3.opus
tune=-21
</region>

<region>
hikey=c#4
hivel=127
lokey=c4
lovel=1
lpc=iIXpQQozlcIZpY9CUy4Cwr3nGEFKP9PAzu/AQLIkC8H/PR9BJu68Pw4MQsHDgthA8gk5QOC6r8DHn6BAX64HwKuZrMBi9RFBgS2XwIyA3b+UAZ1AGqE9wExNxj9a3l2/
lpc_rms=-17.07
offset=3156
pitch_keycenter=c#4
sample=Alto_plop_MF_C#4.opus
tune=-10
</region>

<region>
hikey=c#5
hivel=127
lokey=c5
lovel=1
lpc=m3nQQPdiPcEagzdBjCUXwSEMykAg6fG/ic15v/xTJz/5fRQ/19Bfv6yJWz9Mw96+dQmivyVlhECcm5fAM7NbQOGfIMAo4F0/LYUdQJRWW8B2VSdAVIPSv0v3lz8JV4m9
lpc_rms=-16.75
pitch_keycenter=c#5
sample=Alto_plop_MF_C#5.opus
tune=-18
</region>

<region>
hikey=d#3
hivel=127
lokey=d3
lovel=1
lpc=QnDpQaIlo8KAIbNCANpVwhwT40Gy6KzBVVuNQehkocFL5rxBkwErwWHbFMEHuHJBCCUVwbrhO0DXwVI/VYknvvHSbcB8tmpAYY4lP4cgy8Am7ytB8eqFwPFTl8C5BUtA
lpc_rms=-14.79
pitch_keycenter=d#3
sample=Alto_plop_MF_D#3.opus
tune=-5
</region>

<region>
hikey=d#4
hivel=127
lokey=d4
lovel=1
lpc=SgimQeQcUcKAE05C4iPrwea7ikGmUy/BppdwQNwbu8C4tQ9BfTywP0XqN8F2iTNBFHgswTsxUkEIXDrB5ukEQdPcx8AaHBFAKTNPPszWSL7u/E0/Q/v2PTCVr7+Nqmc/
lpc_rms=-20.00
offset=1622
pitch_keycenter=d#4
sample=Alto_plop_MF_D#4.opus
tune=-24
</region>

<region>
hikey=d#5
hivel=127
lokey=d5
lovel=1
lpc=iUmYQH/2H8GosjFBETMLwaPYwEAOEWTAaxj5P141KcB6wphAj8GdwCG2W0CArO6/q/5XP6QjTz/Zeta/VFm/P+qC1L5w3Ka+F7M+P0KiBr+ZSJ++Bz20PyRlm7+Q9kA/
lpc_rms=-18.88
offset=1847
pitch_keycenter=d#5
sample=Alto_plop_MF_D#5.opus
tune=-37
</region>

<region>
hikey=f3
hivel=127
lokey=e3
lovel=1
lpc=0OaqQf00TcIV/C5ClumPwcG9IEE/B5LARz9qwF7Ii8BJfmJBLRuQwHqZs8CheUVA0YQtwBldmkDO+3m+bB6BwGalCUB1Y0HAnH2pQEIDTsAy1wRAv2YxPpfHL8CWo84/
lpc_rms=-18.94
pitch_keycenter=f3
sample=Alto_plop_MF_F3.opus
tune=-6
</region>

<region>
hikey=f4
hivel=127
lokey=e4
lovel=1
lpc=qqWtQXo+U8J0F0xC4wPRwdmZ3kCI+BQ+aEcDQEY/J8G4c2VBRTulwMVjlcA73sZAiit6wLtYkr4XA/Y/fIr3P2RQy8CQmm9AXhILQI9rKsCst54/pzO5voR5dr+uFY8/
lpc_rms=-15.41
offset=1720
pitch_keycenter=f4
sample=Alto_plop_MF_F4.opus
tune=-16
</region>

<region>
hikey=f5
hivel=127
lokey=e5
lovel=1
lpc=pmHWQFiKTsEnFU5B0CEZwS5h3UDbxDbAWTQZv7j0Yz+tGgpA7b0/wPsoAkDLR8m/r0BYP1Newj9uXhjAIAQRQGl9bL/AGQs/hgHPPkY5Yr5V5Ka+uVSQP8m6lL/aRoE/
lpc_rms=-17.02
pitch_keycenter=f5
sample=Alto_plop_MF_F5.opus
tune=-51
</region>

<region>
hikey=g3
hivel=127
lokey=f#3
lovel=1
lpc=O9URQi/NsML6aZlCUf8iwoJDBULBHbHBAqAsQVz2ucE04apBrNPfQMi7hMEofSNBIMRNwdosWkEcqRLBgnNuQWtFi8FlTShAop21QP9TccDtfNVAmQ15wA9GM8BVc/k/
lpc_rms=-14.67
offset=1020
pitch_keycenter=g3
sample=Alto_plop_MF_G3.opus
tune=-9
</region>

<region>
hikey=g4
hivel=127
lokey=f#4
lovel=1
lpc=y6/PQVJDjMIjEZ1C8R1FwiMrrUE66lPBoOqhQUNVBMJaNABCg340wXWWCMGa7YFBjvhwwS6qTEFUZ3XBRSOHQXnjTMHIPsdA5LsAwHfO+T8JYSLAfrtbQDE+ScC1B6A/
lpc_rms=-14.52
offset=1341
pitch_keycenter=g4
sample=Alto_plop_MF_G4.opus
tune=-17
</region>

<region>
hikey=g5
hivel=127
lokey=f#5
lovel=1
lpc=Q94PQYwSisHd541BRm05wfsg4UCC3kHAW5V1P1RinD6MMS1AgKCzwOnQwUDeHfy/xTiSvrA+A0ChBzrAI72WQFS+iMDgO25A0t7Ov/QvFkAKQljA58GRQJmNR8BiAwhA
lpc_rms=-16.61
offset=73
pitch_keycenter=g5
sample=Alto_plop_MF_G5.opus
tune=-33
</region>
</group>

<group>
amp_veltrack=0
ampeg_decay=20
ampeg_release=0.35
ampeg_sustain=0
group_label=Group_85-127
lpc_hicc1=127
lpc_locc1=85

<region>
hikey=a3
hivel=127
lokey=g#3
lovel=1
lpc=dGZnQQfWCcK66wFCZfWDwZgYf0A0rplA0VQGwU664r4KJiZBxKbHwMjsSsD9z75A1iPIwB8B8UDTEZHAcPABv107Xj9oAuO/4WydQOqkmcCjrBlAh2SAv/IcpD8CN0W/
lpc_rms=-13.71
offset=319
pitch_keycenter=a3
sample=Alto_plop_FF_A3.opus
tune=+2
</region>

<region>
hikey=a4
hivel=127
lokey=g#4
lovel=1
lpc=+ww+QbVU58EHkwJCkfnYwVcKnEEvhVXBX/syQQ7/bMHV2p5BUriNwbcIO0HAM6zAk0oWP3dlIkBV5FbAkyfRPx4+5b+93ktA/9NAwF+sUEAJLXfA1etJQPys77/JbEY/
lpc_rms=-10.95
pitch_keycenter=a4
sample=Alto_plop_FF_A4.opus
tune=-22
</region>

<region>
hikey=B5
hivel=127
lokey=g#5
lovel=1
lpc=wd+6QGm5CcEt7OlAQagwwHKdDEAZu8e/fv/fP5CvJr6mRABAC0jSv/KToz/CWmg/aw4yvSO3jb6d/uA/2jEdv4Y5jj9tnpC+4djIP7dGVb6RPZW+i8uzP7ITCr5hDAs/
lpc_rms=-18.48
pitch_keycenter=A5
sample=Alto_plop_FF_A5.opus
tune=-57
</region>

<region>
hikey=b3
hivel=127
lokey=a#3
lovel=1
lpc=hP4mQaQxwMHK57BB9OEdwdl01T/9pBm/PsZcQFZhAcHu2glBhlQawAwbS8CoZnk/AxGgQFNH88BL5KVA62qdv79rib9btn8/hcgtPpYwDcCfDztAOkjZOqe/+b+VOo4/
lpc_rms=-18.28
offset=937
pitch_keycenter=b3
sample=Alto_plop_FF_B3.opus
tune=+6
</region>

<region>
hikey=b4
hivel=127
lokey=a#4
lovel=1
lpc=hZWxQE/AN8FIJDlBQb4MwQ+RtkBhtTbAquCPP3fZrb9qqVlAjXp0wG4vOECBwY2/XkW+v437PECYfSvA+UvFP3wvYL/s35o/gA6kv9wGtT91nLi/k2G9PyR5k7+5eCk/
lpc_rms=-13.10
offset=1207
pitch_keycenter=b4
sample=Alto_plop_FF_B4.opus
tune=-12
</region>

<region>
hivel=127
key=c#3
lovel=1
lpc=bRY6QU8I1sEKY8pBPah0wc+y/UDOMxjAFHndvyj8FD6b5XlAL4D1v64/QcAmMIJA2DNFwMBTQUBI7xXAL6Mav25loz+ettk+n06DPz4BScBOgDlAitX0v3+m9z9ssZO/
lpc_rms=-11.70
offset=1325
sample=Alto_plop_FF_C#3.opus
tune=-7
</region>

<region>
hikey=c#4
hivel=127
lokey=c4
lovel=1
lpc=VU2dQdqGP8LCeDtC9DHbwXPNdUETakPBICgzQQW3QcF5UTNBcGfCv/wrBMGEhsdAdQASPoZvh7/RLXE/MM8RwKC20T/5aDnAnN6rQDr8/MDsISNBEXn2wDz1oUBjqBDA
lpc_rms=-14.05
pitch_keycenter=c#4
sample=Alto_plop_FF_C#4.opus
tune=-13
</region>

<region>
hikey=c#5
hivel=127
lokey=c5
lovel=1
lpc=UUmEQDgh4cCz0dxARcq6wEZ8lkDaJSvA7iakPxweuL+T8fg/wpjNv8wHlT/Fa4e/VHVBPYfXxD/lcQzAe2ACQKanw7/yNYU/WmzePYbJur4BX+c+zJWzvmkvDD8MV8E9
lpc_rms=-16.06
offset=87
pitch_keycenter=c#5
sample=Alto_plop_FF_C#5.opus
tune=-22
</region>

<region>
hikey=d#3
hivel=127
lokey=d3
lovel=1
lpc=QRdZQTzWDMJjLxtCWTvRwbFiU0Fj1o/Ak0grP+4Kc8CIrglBdZXNwJXfIj9ZDw1A1LhewCJhiUAToFzAnzClP+/6sD+x5KHA5YrlQOAgkMCpTIc/JoUfP/T4Q78ynMU9
lpc_rms=-11.60
pitch_keycenter=d#3
sample=Alto_plop_FF_D#3.opus
tune=-3
</region>

<region>
hikey=d#4
hivel=127
lokey=d4
lovel=1
lpc=5uU+QXj278HNmABCRRWswVLmQ0EPkc3As+6BQHaCEsEqhl5B4rIGwYdfwz07hyVAWKQ6wNS+W0AqjgnAjKXsP4XFUMCErzlAYug4wDGdaEDTlDvAljgZQCFH+7/b0Fo/
lpc_rms=-16.45
offset=1713
pitch_keycenter=d#4
sample=Alto_plop_FF_D#4.opus
tune=-7
</region>

<region>
hikey=d#5
hivel=127
lokey=d5
lovel=1
lpc=mHp/QPMc58Bya+NAcwCewBSXVkDRqAXAZmeWPydc1r+4S0xAS4VKwJ7s+j9H+2C/e6MkP/iGfj4cgne/4FTbPyejkb8I2VQ+eHDKPsjpE7/06mg+9WM2P+M7Kb8nnBg/
lpc_rms=-14.29
offset=723
pitch_keycenter=d#5
sample=Alto_plop_FF_D#5.opus
tune=-43
</region>

<region>
hikey=f3
hivel=127
lokey=e3
lovel=1
lpc=n/gsQRuKy8H/QstB5GiQwZExYEHVLQLBsvF3Pi1DLD//Hf8/vvAwPv8yB8Dz69K99oJ/Pwz0lj8BGkDAsQ4pQDXC7L+uVEq+9ks2QOAqLcC6SYI/uv7hPgr+0r7vLYw9
lpc_rms=-16.65
offset=1902
pitch_keycenter=f3
sample=Alto_plop_FF_F3.opus
tune=+1
</region>

<region>
hikey=f4
hivel=127
lokey=e4
lovel=1
lpc=t8CTQVG6PcKtn0hCqzDjwUXq2EAucxlAhvtyvZiGGcE0sYtBjXo0wYbPj7+n67lAKN4FwE0KjcC+mMhARvFmwP7UUr97bY9AeHiGwDoHgz9I4GtATG6cwCglqD92tjI/
lpc_rms=-13.42
offset=251
pitch_keycenter=f4
sample=Alto_plop_FF_F4.opus
tune=-11
</region>

<region>
hikey=f5
hivel=127
lokey=e5
lovel=1
lpc=xADWQPxmM8F/wyZBMBvlwCVAmkALEkS/5vnav9vyLz7v7oJAfyGkwN0TgkCgKTvA9B1IP6t/GkAmPU/ACjozQFvR1b5RGje+FajZP/Sk1r+IF4c/QPbwPhHckL+HBZg/
lpc_rms=-15.72
offset=2122
pitch_keycenter=f5
sample=Alto_plop_FF_F5.opus
tune=-58
</region>

<region>
hikey=g3
hivel=127
lokey=f#3
lovel=1
lpc=7HWxQQMsYsIVbnBCvEcZwvg+f0EIumk/9aYMwTdm5ryy3V9B/OFUwe+/D0C0AttAmvYcwTEHBUEkkWPAQ7d+v6oLoD88ScS9IAiNvw4aGkDfHSFA344JwXEp7kBpnSbA
lpc_rms=-9.80
offset=1692
pitch_keycenter=g3
sample=Alto_plop_FF_G3.opus
tune=-1
</region>

<region>
hikey=g4
hivel=127
lokey=f#4
lovel=1
lpc=d+ZeQek8BsJJRQxCi3/NwXP0j0GZUSvBwLFtQGXfjMBkERdBPC30wC7eLUCNGv6+8OYOv/hTLUCu35/AKadXQPAByb4CnZi/gIBwQLnQm8BBxXFAv9DHv2EdoL7sHPs+
lpc_rms=-11.17
pitch_keycenter=g4
sample=Alto_plop_FF_G4.opus
tune=-23
</region>

<region>
hikey=g5
hivel=127
lokey=f#5
lovel=1
lpc=3Db7QAMUW8HP2ilB7LeFwG+ZUEBW3kTAFVoWQHk6Rb8o/jJAUSkiwKQKwz22YAJATMKmvmU1rbwj8QG/A+8fQApjCMBg7Nk/DkCSvsMjpT3lTYw+mIcLQDYIT8CYxB1A
lpc_rms=-13.20
offset=123
pitch_keycenter=g5
sample=Alto_plop_FF_G5.opus
tune=-58
</region>
</group>

<group>
amp_veltrack=0
ampeg_attack=2.5
ampeg_release=0.35
group_label=Sustain_0-42
lpc_hicc1=42
lpc_locc1=0
volume=-5

<region>
hivel=127
key=A#3
loop_end=266311
loop_mode=loop_continuous
loop_start=76199
loop_xfade=22759
lovel=0
lpc=UNBSQuS5D8MvUBdD9Fe2wglnXEJHchTCSPrYQei0GsJzdxtCC7ENwVdwXsFUUalBeFPtwRuOv0GDBDvBzWVlQYR8ksGlZFpBpjLQwLR/pL/vKeZAHnlFwDKqcMAQNjBA
lpc_rms=-19.91
offset=1616
sample=Alto_sustain_PP_A#3.opus
</region>

<region>
hivel=127
key=A#4
loop_end=270709
loop_mode=loop_continuous
loop_start=77458
loop_xfade=23135
lovel=0
lpc=rn4dQh4q+sJr6SxDIo0BwyJiHUKx0nZBjZbxwAyg3cGDQURCYt7vwUhCi8BwPF9B8DXPv0xuTcFS8KBBIKutwZnQh0HfK0zA5PcVwYBUVEETtTnB7JYWQarp+8AarnJA
lpc_rms=-18.38
offset=237
sample=Alto_sustain_PP_A#4.opus
</region>

<region>
hivel=127
key=A3
loop_end=263430
loop_mode=loop_continuous
loop_start=75375
loop_xfade=22513
lovel=0
lpc=vL2tQv95a8PWMnFD0zYJwweShkIUGQDCinjAQZFWPsJugoJC7ADxwWnDp8EgVBtCXLbcwUhfJUFt4ZvBUpMEQgz228HLNbBBLPV+wV6RR8DPjklBDCkjQW6+zsGnITdB
lpc_rms=-19.59
offset=1269
sample=Alto_sustain_PP_A3.opus
</region>

<region>
hivel=127
key=A4
loop_end=269436
loop_mode=loop_continuous
loop_start=77093
loop_xfade=23026
lovel=0
lpc=6+rKQg/sk8MmbLFDX8Vnw0uXvUKKjePBVsbuP4G0hcH7MjtCpxhuwDm4jsL8H55CO3v+wTxo9UAAKnjBD/2MQVuSqcCqRR7BrQq1QSPTmcHlcVbBhIk3QiOTO8L/hKFB
lpc_rms=-13.15
offset=629
sample=Alto_sustain_PP_A4.opus
</region>

<region>
hikey=B5
hivel=127
lokey=A5
loop_end=257908
loop_mode=loop_continuous
loop_start=73795
loop_xfade=22041
lovel=0
lpc=hPq7QaVKIcJv1f9BuU1VwQCNMkFXhBDB1Vu/QDsui8D6M7NAeC2dQCScA8F4QipAIo0RQOril0AjxTPAuyBjwNNur0BQ+3O+zDvUQAdwEcHPp5JA9eSgvqt650B2SJvA
lpc_rms=-26.39
offset=127
pitch_keycenter=A5
sample=Alto_sustain_PP_A5.opus
</region>

<region>
hivel=127
key=B3
loop_end=278050
loop_mode=loop_continuous
loop_start=79558
loop_xfade=23762
lovel=0
lpc=QRY8Qi27+MIdx/dC6e9rwh06q0G8faHBKOKWQXTYksGtNoZBPHeIQOwstcHmtpRBVT01wX0s4kC7+aG/zsE1P/9AQ8G0jqZBQQQjwf+JEsDWNnZAQ9PsPkxHo78rG6K+
lpc_rms=-21.33
offset=123
sample=Alto_sustain_PP_B3.opus
</region>

<region>
hivel=127
key=B4
loop_end=271403
loop_mode=loop_continuous
loop_start=77656
loop_xfade=23194
lovel=0
lpc=cA/DQRNzj8L1Db1CT/OawgDnMEKpbIrBeXEZQefajcFk7s5B2g+XwTa5oj/xLUNBd696wVdOL0E7W8bAnLu9QPCTqcDOpzpA2Xv+vkGZxb6gepW+hvgQQC4nPsC5p8g/
lpc_rms=-18.62
offset=110
sample=Alto_sustain_PP_B4.opus
</region>

<region>
hivel=127
key=C#3
loop_end=258418
loop_mode=loop_continuous
loop_start=73941
loop_xfade=22085
lovel=0
lpc=Wz2SQlhxGMM5FOVCwftRwnrT4EHtIeLBWf3NQTlQnsFCQ+pA6HmoQZZ22sHTW4hBaVpHwSAd00DR/NvAlWZkQQ+Vj8GxjztBYl4UPy3+3MDm00ZBr8NVwQVjP0Fr483A
lpc_rms=-16.69
offset=11872
sample=Alto_sustain_PP_C#3.opus
</region>

<region>
hivel=127
key=C#4
loop_end=281412
loop_mode=loop_continuous
loop_start=80520
loop_xfade=24050
lovel=0
lpc=Gso0Qkfi/8IeVRNDkO6zwo+WDkJditDBxnwPQjz2J8I81BdCPG0lwe3b0MHJHyBCbN77wd2uoUEwsoPB+vKDQXoSl8F8fpJBkoRWwf0hUUHT4mLB1CopQbHUL8CnPSy/
lpc_rms=-19.29
offset=22719
sample=Alto_sustain_PP_C#4.opus
</region>

<region>
hivel=127
key=C#5
loop_end=269715
loop_mode=loop_continuous
loop_start=77173
loop_xfade=23050
lovel=0
lpc=uC5OQWmFCMKsvyZCUf4IwiD++kHEnwzCXlEEQkjNw8FX/IxBlM02wY/emkCpSQrAK+0lQDY78r9CLn4/ngZrwFSNEkFLax3BI5/BQGi0XsAuqF1AkBoOwLWTiD3CKnk/
lpc_rms=-19.31
sample=Alto_sustain_PP_C#5.opus
</region>

<region>
hivel=127
key=C4
loop_end=277851
loop_mode=loop_continuous
loop_start=79501
loop_xfade=23745
lovel=0
lpc=wOFfQsEdGcPlHBhDOImDwuyGlEGbpjjB5ubivxW5pEAkRldAk6QRQb/vvcFc9GZBkPnTwEsd90Cm783AX/u8QFkYscA0dDVAGLzYvwCx6UCyHFzB2t9/Qfe3Q8EOLoVA
lpc_rms=-21.40
offset=55
sample=Alto_sustain_PP_C4.opus
</region>

<region>
hivel=127
key=C5
loop_end=271349
loop_mode=loop_continuous
loop_start=77641
loop_xfade=23190
lovel=0
lpc=3Q7FQYO9l8LdxMlCyVCVwlmGH0IoqvHBxxrfQWRdn8F1GJNB6rxwwTqtD8CaIpFBnzaKwTnSDUFTenXARiGUP5tP9D9nFY2/3sqtPgM4qsBjmRBBEIOdwDPx3r8SYihA
lpc_rms=-18.28
sample=Alto_sustain_PP_C5.opus
</region>

<region>
hivel=127
key=D#3
loop_end=241785
loop_mode=loop_continuous
loop_start=69182
loop_xfade=20663
lovel=0
lpc=Nmc8QqgF1cKyaa1CGtgYwlFUoEENm6XBv5m+QbhF2cFnq65BNpVewBeqCMH6BrdApYKIv1XtmD1HoAXAghAKQSkYEcHLZExAMoBcQGw7KMHbUUlBwDm5wMwgOr82Eng/
lpc_rms=-22.07
offset=3483
sample=Alto_sustain_PP_D#3.opus
</region>

<region>
hivel=127
key=D#4
loop_end=257829
loop_mode=loop_continuous
loop_start=73772
loop_xfade=22034
lovel=0
lpc=Ht4LQlRMzcIBjv9CrjDIwpX0h0IJYDnCrAkMQpjrHcLT8DNCmb3awZkn3r820n9BR2BtwTW7HEFQwNbASbPnQCQhMMEXN1pB2YIswalIIUCzmFtAz/kjQHKSFsFQdZ9A
lpc_rms=-21.10
offset=148
sample=Alto_sustain_PP_D#4.opus
</region>

<region>
hivel=127
key=D#5
loop_end=251803
loop_mode=loop_continuous
loop_start=72048
loop_xfade=21519
lovel=0
lpc=PHLCQQH1d8Lq1YtCWnYkwpcHi0ESN33BzM6OQQVFhMFq8z5BmUq1QGR3zMEEP85ByTOtwCi+18A29Y9A10nPPvrWAz85mfO/P10eQIokv8BP0JhAZbfLQCz6R8FzBPRA
lpc_rms=-22.48
sample=Alto_sustain_PP_D#5.opus
</region>

<region>
hivel=127
key=D3
loop_end=235417
loop_mode=loop_continuous
loop_start=67360
loop_xfade=20119
lovel=0
lpc=YCtCQvJ+ncLzjglCZ7JZwY1baUEgGPjAIOxWQEuMOMFLoXpAKAinQaAZr8EtCAFBpYhbwJPaqkCvN4HAeogqQCK83j47NW7Af2TlQKbxp8DfHZG+6Vy8Pxd7/z9hhRLA
lpc_rms=-19.18
offset=2077
sample=Alto_sustain_PP_D3.opus
</region>

<region>
hivel=127
key=D4
loop_end=262386
loop_mode=loop_continuous
loop_start=75076
loop_xfade=22424
lovel=0
lpc=LccvQoz678Ip7wxDyA3NwsdydUKXVhTCO+nWQbLzG8LnpW9CPBFXwqcBq0EwEZVAAsWJwWd3sUH7przBgmy/QZCyysFFSZ9BLkbRwDpD4T87X6K9vfSrwMHiyUDJzeC/
lpc_rms=-17.76
offset=29
sample=Alto_sustain_PP_D4.opus
</region>

<region>
hivel=127
key=D5
loop_end=267785
loop_mode=loop_continuous
loop_start=76621
loop_xfade=22885
lovel=0
lpc=3KxnQTSdH8KCqj1CDej8wdNyjUEls5PBLrCuQe17lsFVSlpBCm1qwIiJBcHVSy5BqdCJwM5mbj9ij1LARdK+QEooB8HzNhxB64y1wNMBUUCmXADB7SpXQbu9N8FeYY1A
lpc_rms=-19.36
offset=90
sample=Alto_sustain_PP_D5.opus
</region>

<region>
hivel=127
key=E3
loop_end=256652
loop_mode=loop_continuous
loop_start=73436
loop_xfade=21934
lovel=0
lpc=1ocsQq35r8LN3XhComH9wZPKt0GKiITBKrVcQZLbhMHTJ5ZBZ218wOldE8EMeuhApTqQwDV7w0CwXRTB0vBKQRgjVcE5G0RBDFIWwRikskB7h3bAwkBQQJDOlb+wYCa+
lpc_rms=-23.32
offset=2427
sample=Alto_sustain_PP_E3.opus
</region>

<region>
hivel=127
key=E4
loop_end=257116
loop_mode=loop_continuous
loop_start=73568
loop_xfade=21973
lovel=0
lpc=jiCGQbS9PMKqbGtChwswwh6yrkHu1OnA2x2lP2FCIcB1H8pA4CUSwHiI08DuQzJBR1UZwRyMu0DpIdfAbs4RQatt68CVvppAgLXvv1o/4r8Tk39A5mHiv3l0lL/dfTE/
lpc_rms=-25.39
sample=Alto_sustain_PP_E4.opus
</region>

<region>
hivel=127
key=E5
loop_end=252148
loop_mode=loop_continuous
loop_start=72147
loop_xfade=21549
lovel=0
lpc=+HlVQa6bCcIVsTRCkYgZwvXGukF9f0/BgXgtQVSQGMF6nc9AJbLUv8Dqvr8lllVAEj2OwLvrrkAQ+O3A8g0hQeZgF8FRK7dAqv8rQH66CsFutAVB6mphwOGqlb+b9hBA
lpc_rms=-18.25
offset=966
sample=Alto_sustain_PP_E5.opus
</region>

<region>
hivel=127
key=F#3
loop_end=258082
loop_mode=loop_continuous
loop_start=73845
loop_xfade=22056
lovel=0
lpc=GmqRQpShNcPJaCJDGGKMwgMHnkEIFq/AInotQYq4+cHpxjNCt7JEwW/bz8G5P+BBrJeywUImZEE3Tk/Bi2CiQYOXO8Ewj+3AlTpQQekh78DWOEZBSh0owcW/K8CI/GhA
lpc_rms=-18.70
offset=4935
sample=Alto_sustain_PP_F#3.opus
</region>

<region>
hivel=127
key=F#4
loop_end=273066
loop_mode=loop_continuous
loop_start=78132
loop_xfade=23336
lovel=0
lpc=BtlaQq+hOcM20YxDOs6Iw7HOWkNHzC7DSD4LQ45j4cKZN9FC1FKiwk7uBEJDdYDA7/IDQdcclME/31BBIHFpQF8mnsHutQJC87Evwh4NRkJc/iTCMp3DQXBALsF4zD9A
lpc_rms=-15.05
offset=441
sample=Alto_sustain_PP_F#4.opus
</region>

<region>
hivel=127
key=F#5
loop_end=271097
loop_mode=loop_continuous
loop_start=77569
loop_xfade=23168
lovel=0
lpc=vM4KQqsqkcKYU4NCzWzWwWZQ4EC99dvAUHM4QXpg4MAC5VZAE+AUQFZvDsBIc1pAeZrUwPZ7+kD2o0BAkqfywOwchEBoZYtADKlFPrO99cClHilABIuLQTw6xME+G29B
lpc_rms=-20.87
sample=Alto_sustain_PP_F#5.opus
</region>

<region>
hivel=127
key=F3
loop_end=264875
loop_mode=loop_continuous
loop_start=75788
loop_xfade=22637
lovel=0
lpc=fd24QcvHTMJKoiBC3hFpwd0zq0Bj6bHAfTvlQISoK8FLYypBTdFkv+9ws8B2wXFAW5inwIqF50CtQ6XAAldUQL8dzb9oCfi9S82Wv88RN0DbGqy/65g8PqJ2Q794kXQ/
lpc_rms=-24.76
offset=3577
sample=Alto_sustain_PP_F3.opus
</region>

<region>
hivel=127
key=F4
loop_end=269459
loop_mode=loop_continuous
loop_start=77100
loop_xfade=23028
lovel=0
lpc=c+ZdQtzzMsOu+3ZDkG9Cw1muw0ItQBDCHIePQVOV1sGPKBVCI15YwW60ysGHG+1Bqxq1wPm27sB5rc0/d4sCQNcWr75E/DVAcp58v6iy9cCMp1VBej9kwdH1EkEjefG/
lpc_rms=-15.69
offset=1313
sample=Alto_sustain_PP_F4.opus
</region>

<region>
hivel=127
key=F5
loop_end=269329
loop_mode=loop_continuous
loop_start=77063
loop_xfade=23017
lovel=0
lpc=l+SXQXfHIMJyeCNCij/jwTLNuEG72bvBWA22QXGKlMFCpXNBgAbywPRGmr4AJadAyMHCwHw/k0DA4GzAN424QByIbsAdmWFATJvfv2bznb9y5BhAhOwbP93dMMA3EU9A
lpc_rms=-19.70
offset=536
sample=Alto_sustain_PP_F5.opus
</region>

<region>
hivel=127
key=G#3
loop_end=256467
loop_mode=loop_continuous
loop_start=73383
loop_xfade=21918
lovel=0
lpc=acF2Qsk2LcOiKDhDjIO4wlbryUFVkELBADBJQagHk8EdMa9BlRwVQftGNMJEtCBCe8eJwa/izz8/esJAZJn9wB3EwT/o1ChApRAbQS4CmcFJBXFBjTHEwCaqWr9AD68/
lpc_rms=-20.36
offset=491
sample=Alto_sustain_PP_G#3.opus
</region>

<region>
hivel=127
key=G#4
loop_end=273352
loop_mode=loop_continuous
loop_start=78214
loop_xfade=23361
lovel=0
lpc=05I0QimYEcN8W1ZDmlZLw8yKEkOLnKjCubwXQi2WtMF08uZBbqSgwZzU6sBtmaxBRkF6wRvZukCReqDAdf6rQW9eGcJU6QxCYzthwRHdT8ELSelB1BPHwSctEEFkfAU+
lpc_rms=-13.56
offset=323
sample=Alto_sustain_PP_G#4.opus
</region>

<region>
hivel=127
key=G#5
loop_end=255359
loop_mode=loop_continuous
loop_start=73066
loop_xfade=21823
lovel=0
lpc=2no0QjhxkMKnf0xCjCZrv5nkKMHoPvtAoZcMQFtSrkBnQhPBcD+LQbAALsCBC+XACGBJQcH1wz+MbyLAt6uUQH2rvUCrtpHAt179P0qNZ0H2KzPB4o75QAhsNcDtrCtB
lpc_rms=-18.68
offset=35
sample=Alto_sustain_PP_G#5.opus
</region>

<region>
hivel=127
key=G3
loop_end=270105
loop_mode=loop_continuous
loop_start=77285
loop_xfade=23083
lovel=0
lpc=2YOCQplUKcNK2yBDCHKUwoxLh0EdJek/blwyQeg9EcJsHBdC8OPdwB20vcGK7w5CqeXzwRn6u0GBYsbBq57GQbGKfsHgojG/+j7rQEfhJMBSi/2/KowwQSWvccGQ8sRA
lpc_rms=-18.13
offset=5142
sample=Alto_sustain_PP_G3.opus
</region>

<region>
hivel=127
key=G4
loop_end=260037
loop_mode=loop_continuous
loop_start=74404
loop_xfade=22223
lovel=0
lpc=fGvtQnYlmcMI1Y1D62MPw4Rat0IhD3rCZSTrQWatEsIPRSxCP9CkQSoFh8KD2AdC2KuLwTkXZEFvbea/KR1kQL7vX0HlkN3Btn+1QRN4O8FgyY7BQclLQkJNYcKnIcZB
lpc_rms=-19.62
offset=381
sample=Alto_sustain_PP_G4.opus
</region>

<region>
hivel=127
key=G5
loop_end=273242
loop_mode=loop_continuous
loop_start=78183
loop_xfade=23351
lovel=0
lpc=0oA3QllOocJ8P4ZC8BbywVybm0Gi1IXBWLxoQbklhr5T742+xF/2P/L7hMBYiiZBBOWvv5bfHr8tCUu/r5AKQVftn8DA4Z1AOuaYPo/8ZEAXpvXAhpCHQWjPccGYxlRB
lpc_rms=-17.76
sample=Alto_sustain_PP_G5.opus
</region>
</group>

<group>
amp_veltrack=0
ampeg_attack=2.5
ampeg_release=0.35
group_label=Sustain_43-84
lpc_hicc1=84
lpc_locc1=43
volume=-5

<region>
hivel=127
key=A#3
loop_end=272913
loop_mode=loop_continuous
loop_start=78088
loop_xfade=23323
lovel=0
lpc=Pe7oQYcOmcJJ8JpCeOwWwjBXZEEie5bB+aDmQe4IBcKPALxBmBx3P0hjccFP+MlAV0yhQOQz/MCjLfNA06FfwGYYj79rbh/AHGfcQIhP18CCT/xAGiUFwTZ9kEDJqwG/
lpc_rms=-14.59
offset=3853
sample=Alto_sustain_MF_A#3.opus
</region>

<region>
hivel=127
key=A#4
loop_end=265347
loop_mode=loop_continuous
loop_start=75923
loop_xfade=22677
lovel=0
lpc=i+MmQdPh0cH5a/FBC2K5wfZtfUFO13jB9PSaQekSqcGmJYtB3Ui0wA+uLsDkxxtAoVYZPuTszL/Aa9a9WH1KQCs8oMAJnmJAZPopP9QT3L90bxo/VH1/PpWkb7+HbiA/
lpc_rms=-15.82
offset=581
sample=Alto_sustain_MF_A#4.opus
</region>

<region>
hivel=127
key=A3
loop_end=268293
loop_mode=loop_continuous
loop_start=76766
loop_xfade=22929
lovel=0
lpc=GAIZQvKvzMJ1MNRCW4N/wiZcG0JI9NLBLLKIQWfEv8EYWudBXIO9wN80kcFn2JdBDbtTwYN9J0GZAOjAqPn7QDA8XcHvcUVB/pYbwDey5cBinjxB2kaVwGJ4e8AvlTJA
lpc_rms=-15.12
offset=1500
sample=Alto_sustain_MF_A3.opus
</region>

<region>
hivel=127
key=A4
loop_end=279231
loop_mode=loop_continuous
loop_start=79896
loop_xfade=23863
lovel=0
lpc=cxSbQdVxUcLgzIFCQUlqwoX/RkLgbDPCHEU5QsLLSsKm1TVCrhu/wchQTUBE/LhAubPGwAz3u0C9MiHBmcSHQdsTtMHFCJtBUcv5wJmnir8rsEpAW9Ozv7yamb+I6aI/
lpc_rms=-11.47
offset=396
sample=Alto_sustain_MF_A4.opus
</region>

<region>
hikey=B5
hivel=127
lokey=A5
loop_end=254927
loop_mode=loop_continuous
loop_start=72942
loop_xfade=21786
lovel=0
lpc=lWJmQS9HiMHMrV1B/f0awHRelz/OSkpALKErP+yr1b/xBPhAyjNKwCPtMkC4IDFAOTjPvyTyj0DF42k/k6bdvuzdcEBqRWS9qnnhP0EpkkApooLAQlO6QL8qsr+Y7JZA
lpc_rms=-20.05
pitch_keycenter=A5
sample=Alto_sustain_MF_A5.opus
</region>

<region>
hivel=127
key=B3
loop_end=278102
loop_mode=loop_continuous
loop_start=79573
loop_xfade=23767
lovel=0
lpc=ZFSTQRUVK8IS8hZC1N2ZwcwCN0EPh/bAL7uEQFnf6cDt2wdBrxBXP+6aDMHB9sxAWk2RwFZy+UCHVv3Aq2mPQG5Nlr+2FArA1dN0QE6RP8ABxAU+aFlIQJjwwb9A+MW+
lpc_rms=-19.05
offset=492
sample=Alto_sustain_MF_B3.opus
</region>

<region>
hivel=127
key=B4
loop_end=252071
loop_mode=loop_continuous
loop_start=72125
loop_xfade=21542
lovel=0
lpc=M7jtQETbeMGPGHdBvD1GwV5aFUEBiLLA+Q2QQMyR3sCelQ1BvVHLwMyaFkC1PFu/KbGdPxMO97/ISGpAjTCbwGmDUUDmswfA0XNDQMZVV8B0T1NA7cgtwEBN4j82w5++
lpc_rms=-13.91
offset=403
sample=Alto_sustain_MF_B4.opus
</region>

<region>
hivel=127
key=C#3
loop_end=262181
loop_mode=loop_continuous
loop_start=75017
loop_xfade=22406
lovel=0
lpc=QKNeQi85HcNawS1Dp93iwsNInkIyr4HCuHkaQq/y18FUbAJC5yY0wY2/yMHphv5BygG5wXNcskFrVZPBlDPbP6fwtUDxHepAG6qXwK7zRcH9h2NBdkbOwHddOj8kwhg/
lpc_rms=-16.23
offset=5326
sample=Alto_sustain_MF_C#3.opus
</region>

<region>
hivel=127
key=C#4
loop_end=272795
loop_mode=loop_continuous
loop_start=78054
loop_xfade=23313
lovel=0
lpc=H6L5QfMmpsIAa7hCBP9iwjqFmUGgl2zALpIBQW5mk8FiPo1BdQKHwPdkDsEdRGFBXTo1wRgdAkFY1DTB5F+BQVkcj8GPfXxBnDY5wUxhu0DzlC3ANJEMQKCkGEDSGijA
lpc_rms=-17.32
offset=410
sample=Alto_sustain_MF_C#4.opus
</region>

<region>
hivel=127
key=C#5
loop_end=269705
loop_mode=loop_continuous
loop_start=77170
loop_xfade=23049
lovel=0
lpc=9ZrVQAL2VMHK+GlB6f06wUxzAUH2NpDAdLPIPy3BQr/Q65g/KR81vzwJnT5jNty9tsaTvzNsHUALCh/ApPR1PzTtkD9+/Q7ASK87QBVK37/+Gic/zOWbPlcJ5r7KEkc/
lpc_rms=-15.75
sample=Alto_sustain_MF_C#5.opus
</region>

<region>
hivel=127
key=C4
loop_end=277639
loop_mode=loop_continuous
loop_start=79441
loop_xfade=23727
lovel=0
lpc=f4LsQX9UnsLJgKFCqAsgwjhShUEv84vBtVeVQbtAkcFK+1tBIiJSQKj+jMEZYWJBeVUCwW1J/kBTP9XAyNQHQY+zW8FGoh5B81pUQNiYHsG3eYhA2XGZPzSK874qJC6+
lpc_rms=-19.12
offset=434
sample=Alto_sustain_MF_C4.opus
</region>

<region>
hivel=127
key=C5
loop_end=272442
loop_mode=loop_continuous
loop_start=77954
loop_xfade=23283
lovel=0
lpc=Qd8AQU+so8GrKMlBb1itwdPodUEnPQnBogeQQLjgv8BOtRhB6EMCweJ8dEDeKTm/SZqhv/pEB0BMJP+/kqwEQM7Xhb/8c1a+kkKUP/qnxb8P6Ug/3aGCP49eGMCE/sg/
lpc_rms=-15.35
offset=73
sample=Alto_sustain_MF_C5.opus
</region>

<region>
hivel=127
key=D#3
loop_end=264747
loop_mode=loop_continuous
loop_start=75752
loop_xfade=22625
lovel=0
lpc=hIF8QhWaLcO7FDBD1l+8wqdVUkKCf/fBGwhEQNtw08BQMu1BTF0EwW5jC8KuLPVBTslLwWJykUHHjYLB1NS+QPsQOMGkK3RB/gfsQDsVucHU9mlBAW/UwDA8bT/wUd8/
lpc_rms=-17.56
offset=9205
sample=Alto_sustain_MF_D#3.opus
</region>

<region>
hivel=127
key=D#4
loop_end=275402
loop_mode=loop_continuous
loop_start=78801
loop_xfade=23536
lovel=0
lpc=YSq0QdNEgMIW3pxCjrFcwnUGvEGNvHvAoSFtv/uFicC9taxA1PDwQEMCqMHDNZpBMm34wNH7GcA3gw1BGtEWwY/ruUAU8pbAMPh1QMgYIMDM5GRAP+hAwOzHfj84Kj88
lpc_rms=-18.88
offset=138
sample=Alto_sustain_MF_D#4.opus
</region>

<region>
hivel=127
key=D#5
loop_end=246523
loop_mode=loop_continuous
loop_start=70537
loop_xfade=21068
lovel=0
lpc=5HSIQEt0AsH7mAdBWGTJwFpqkkBYIELAa57hP1gcIMDtM3tABI1OwLClrD/1wIA+2L24vwf8L0BYISHAmcjdPxcRRr9jH4o9t7imPt8+5z6NO5i/6OCCP0zZdL3Oyzk+
lpc_rms=-16.39
offset=54
sample=Alto_sustain_MF_D#5.opus
</region>

<region>
hivel=127
key=D3
loop_end=268925
loop_mode=loop_continuous
loop_start=76947
loop_xfade=22983
lovel=0
lpc=lZ/EQgXcecM3nWlDdJEOw+oh30LMO5vCBrstQhTZK8K2hVtCzpO8wBO0VcIqo/VBjJHTwF7LikEkQ2vB9zmKQa3b38GjQLFB2+YZwMECK8HuNgNAMP9XQLaSgT95C+i+
lpc_rms=-17.18
offset=2105
sample=Alto_sustain_MF_D3.opus
</region>

<region>
hivel=127
key=D4
loop_end=278565
loop_mode=loop_continuous
loop_start=79706
loop_xfade=23806
lovel=0
lpc=/fn9Qa/nssJXtuNCdD24wv81cEIG7SPC9oLkQd0vnMGf+khBRzeKQIIOy8GnZfhBpD7YwchxtEEOGJ3BvbyWQe73isGQXj9B2LqQwPDQ4z7MFl9AicICwV+8+EA4lg/A
lpc_rms=-15.26
offset=337
sample=Alto_sustain_MF_D4.opus
</region>

<region>
hivel=127
key=D5
loop_end=272825
loop_mode=loop_continuous
loop_start=78063
loop_xfade=23316
lovel=0
lpc=fMC6QJpwM8H5eEhBMOwiwYsZA0EDqcDA5DKGQHaqcMCxUY1AA5yEwHA2XEDZewzA/rKEvYBl0z/6VwTAiGP6Pz3fn7+RNAI/6lIevNF62D9B6xbAncg5QB3A9b8yQ5Y/
lpc_rms=-16.39
offset=176
sample=Alto_sustain_MF_D5.opus
</region>

<region>
hivel=127
key=E3
loop_end=254041
loop_mode=loop_continuous
loop_start=72688
loop_xfade=21711
lovel=0
lpc=5CLNQp1tasM+OTZDGpOvwr4Ib0JWDvjBz1V4QVz2ncGVBzZCUXICwo2k6z6n+Y3A3vtewTHxukG4nsbAnRFAQAZFKj+5rIE/NbtewHCaW0EfQanBzs4xQehAbcHl2j1B
lpc_rms=-19.14
offset=9406
sample=Alto_sustain_MF_E3.opus
</region>

<region>
hivel=127
key=E4
loop_end=268192
loop_mode=loop_continuous
loop_start=76737
loop_xfade=22920
lovel=0
lpc=CtE7QcHd7sGeAg9CIwX8wdIIwkHbv4fBacFUQUfBX8FQtVZBIrywwMdHf8AqZAhBY4kLwaJ33UDtxsXA7+raQLGa8sBv9/ZAfWOjwK665T6IDzRAaQXovzQwgD7ncBe+
lpc_rms=-22.43
sample=Alto_sustain_MF_E4.opus
</region>

<region>
hivel=127
key=E5
loop_end=250409
loop_mode=loop_continuous
loop_start=71649
loop_xfade=21400
lovel=0
lpc=u6YDQeZJhcG8PY9BVidiwSaZFUGiumzAuK+tP75Lk8CLGQZBjVPywJwDt0CQaN6/i31KwFB1wUD8f7jAI6miQC2CHsDqjwS9yXQUPHAHGUBHMjjAEXkwQCVGMsDnPBFA
lpc_rms=-15.02
offset=589
sample=Alto_sustain_MF_E5.opus
</region>

<region>
hivel=127
key=F#3
loop_end=275081
loop_mode=loop_continuous
loop_start=78709
loop_xfade=23509
lovel=0
lpc=Kb40QmNx48L/EspCl5gpwlN/vUEltMrBQFuoQbZt7cEOuSpCaPKywVVkLMH+fYBB547wwPVxAUGePIDBAk+IQWvjP8EOdyBB/LX6wNmceUBkqpQ/BEJBvOn5ccC4VwFA
lpc_rms=-16.25
offset=8293
sample=Alto_sustain_MF_F#3.opus
</region>

<region>
hivel=127
key=F#4
loop_end=266084
loop_mode=loop_continuous
loop_start=76134
loop_xfade=22740
lovel=0
lpc=4YQgQmvG+sIEcCRD9pXowpsvT0Jr4yXCPdqMQu5ZtMIoWpRCcky0wQRgj8F5wk5BYzk6QVY7l8Ea0AtAPiWzQe4uG8J16vpBbyFawDXbj8EjFbJBQHOAwaeX7UC4DN6/
lpc_rms=-11.79
offset=196
sample=Alto_sustain_MF_F#4.opus
</region>

<region>
hivel=127
key=F#5
loop_end=257191
loop_mode=loop_continuous
loop_start=73590
loop_xfade=21980
lovel=0
lpc=42h2QI9IxMDrvdRANXyjwM10UUCCfnm/8r2BPnb8Nb+pOLo/Rd8tv/qRsz4GiHo+y4iAv3HB4D+0yZe/s2qBPzgiCb17KQ4+q4WQvjunrT/pE8m/Fpm4P3cTsL6gENw+
lpc_rms=-21.70
offset=416
sample=Alto_sustain_MF_F#5.opus
</region>

<region>
hivel=127
key=F3
loop_end=271414
loop_mode=loop_continuous
loop_start=77660
loop_xfade=23195
lovel=0
lpc=DmAEQslzo8JRm5xCgiI6wrZTBkLV/N7B6xWrQbg808HZM/hBl0d/wYJHz0B0rWDBacE+QQbescB0ErNAEf8cwP2YgsA8mpxAebCov8fpJL/4KLxA0ObSwMQ/Q74UiwdA
lpc_rms=-20.63
offset=8289
sample=Alto_sustain_MF_F3.opus
</region>

<region>
hivel=127
key=F4
loop_end=277071
loop_mode=loop_continuous
loop_start=79278
loop_xfade=23679
lovel=0
lpc=DDISQu7D1sIUIvxCsneSwr7R0EHeh7TBIsoNQsDiLsJS/wlCYT5LwBqIccG8+jdAfWUKQddHsMCAcVzAKSNvQVoip8G1rC9BkWl6QB2EF8Fn5kVBP+tjwfoRB0GVP6u/
lpc_rms=-14.79
offset=771
sample=Alto_sustain_MF_F4.opus
</region>

<region>
hivel=127
key=F5
loop_end=266891
loop_mode=loop_continuous
loop_start=76365
loop_xfade=22809
lovel=0
lpc=vaDEQAJSPMEME0ZBhVscwa2p4EC2CETAHF0FP4iDG78elA9AbM6uv7Omjj3GqmI/DNEtwFC1jEBTxG7Ayng/QEL16L/jQNo/OXCmv/gZJUCh7VvAEmJgQF1nLMC1Kts/
lpc_rms=-16.96
offset=133
sample=Alto_sustain_MF_F5.opus
</region>

<region>
hivel=127
key=G#3
loop_end=262438
loop_mode=loop_continuous
loop_start=75091
loop_xfade=22428
lovel=0
lpc=XX8EQpPUp8JOHZtCFcQIwpYYf0F+AWrBdIxIQcKWnMHtJq9BxpbhvV+pgcF+hL9AOuM5QJEToz/tF0zAuEqYQOWI68BCGVI/twvLQJtJXMCfcRPAuBGcQFjUDsANAB2+
lpc_rms=-17.03
offset=1397
sample=Alto_sustain_MF_G#3.opus
</region>

<region>
hivel=127
key=G#4
loop_end=269663
loop_mode=loop_continuous
loop_start=77158
loop_xfade=23046
lovel=0
lpc=llLuQSm4qMLhm9dCtO2pwgduQEIUquTBCyXuQclLDcL5JtNBe7mYPst/mcGmZV5BK90swD9jxD88nQfBe16KQYBfkcE+KQBBC8eRQGJFPsG8VXRBDyZ4wUArG0HMqvG/
lpc_rms=-12.33
offset=680
sample=Alto_sustain_MF_G#4.opus
</region>

<region>
hivel=127
key=G#5
loop_end=268355
loop_mode=loop_continuous
loop_start=76784
loop_xfade=22934
lovel=0
lpc=XQVLQcirlsEuyIZB9WTdwPeg+T8op1VAgs2HwJcvwkDKJti/v5IDQJHH1r5vqV4/ZSwaP9lIO0ASWjLA9BtkQHnUKUAwwJjALjGiQAUylL9a848/NlpTQPJah8CftapA
lpc_rms=-16.83
sample=Alto_sustain_MF_G#5.opus
</region>

<region>
hivel=127
key=G3
loop_end=276229
loop_mode=loop_continuous
loop_start=79037
loop_xfade=23607
lovel=0
lpc=olRaQi9qEsNKURBDW0KSwii2MkIKXCjCVj7jQR0FAcKu2iFCL+J0wVpdLMG6B2dBdZ2QweSKr0GFJpDBDHa2QQTJ4sFLBD9BozWWQGWy3cCtFS5B4FbXwEowi8D8hGpA
lpc_rms=-14.01
offset=2503
sample=Alto_sustain_MF_G3.opus
</region>

<region>
hivel=127
key=G4
loop_end=276635
loop_mode=loop_continuous
loop_start=79153
loop_xfade=23642
lovel=0
lpc=4QMGQnztzsLluQ5DMB4Bw0dOykJjTKXCU6yRQs5QisKCw19CCO+VwcDgb8FUgdlBYpwKwl8oLEKUeE7CWD5mQiUSR8IT/dtBVXbgwKPeEUBRjYzAt0m7QN3mxsDTlTRA
lpc_rms=-11.91
offset=1257
sample=Alto_sustain_MF_G4.opus
</region>

<region>
hivel=127
key=G5
loop_end=264258
loop_mode=loop_continuous
loop_start=75612
loop_xfade=22584
lovel=0
lpc=ZX9lQfPT0MH0b8BBfZ5Vweh5E0F6OtbAheDZQEtD7MBLOBpBybuEwOyAGb844Q1A+qkdP0HbA79Wcly952iYQJlgs8BwIbRAVspywJspjUAlOZzAeCoUQRlsGMG4x9FA
lpc_rms=-15.92
sample=Alto_sustain_MF_G5.opus
</region>
</group>

<group>
amp_veltrack=0
ampeg_attack=2.5
ampeg_release=0.35
group_label=Sustain_85-127
lpc_hicc1=127
lpc_locc1=85
volume=-5

<region>
hivel=127
key=A#3
loop_end=271185
loop_mode=loop_continuous
loop_start=77594
loop_xfade=23176
lovel=0
lpc=P4aGQddELMIrBUJC224ZwjNu5kEkeYvBiZyFQATEjb59+ZI+pyWvQPAwAsFq03JAKizkPgbFsT5mymzAMaC1QDXMtMAixRa9avb6QAdcE8ElCLZAQ71ZwPffNEDNRoa/
lpc_rms=-12.35
offset=367
sample=Alto_sustain_FF_A#3.opus
</region>

<region>
hivel=127
key=A#4
loop_end=276308
loop_mode=loop_continuous
loop_start=79060
loop_xfade=23614
lovel=0
lpc=hsopQc3U08FkJ/1B5EDfwaOnrUEvs4zBLKdmQQ1qHcE7LcpASBZHwH1y3z9BSCDAddeLQD87kMCyeFk/P9HuP5332b/ivi5AcTB+wKypcUCzLEfA2D8aQGy5/r8U9Yc/
lpc_rms=-6.55
offset=161
sample=Alto_sustain_FF_A#4.opus
</region>

<region>
hivel=127
key=A3
loop_end=275599
loop_mode=loop_continuous
loop_start=78857
loop_xfade=23553
lovel=0
lpc=pbBcQT0zCcJakhpC7sAFwgSx8UF1pMfB93JsQbcrEcEEVLRAJsCKQNM3VsGQU3RBiHhUwT2rQEFANBnBEs2qQPTUnsDlY5VASLCJPxpr3sAoQdpAtMqJwIiGH0DPOR2/
lpc_rms=-13.48
offset=1265
sample=Alto_sustain_FF_A3.opus
</region>

<region>
hivel=127
key=A4
loop_end=270838
loop_mode=loop_continuous
loop_start=77495
loop_xfade=23146
lovel=0
lpc=rLdsQdLhHsJFaElCsP86wlMyIkJyrhDCJwb8QU6d3MHHHbZBkedLwTZSYEBHmsI/Q2t3v8I/w7/fNCY/TwnyP3x6K8CFXhtAGcOHv8W3hcB9x/1AVT60wKwW+T8NvDW+
lpc_rms=-8.00
sample=Alto_sustain_FF_A4.opus
</region>

<region>
hikey=B5
hivel=127
lokey=A5
loop_end=246432
loop_mode=loop_continuous
loop_start=70511
loop_xfade=21060
lovel=0
lpc=0oQmQXq/MMFAsSVB0ZyEwNd2oUDd/9m/zyxxQA9cyr5IRcs/xiAWQF8pxz0jJPE/3P5HP2nK8j9zQXw/1ubWP81Opz4d1xhAwREbP9jV9D+gQ6489jdjQCjuC8Dh9KNA
lpc_rms=-18.32
pitch_keycenter=A5
sample=Alto_sustain_FF_A5.opus
</region>

<region>
hivel=127
key=B3
loop_end=281233
loop_mode=loop_continuous
loop_start=80469
loop_xfade=24034
lovel=0
lpc=gvALQYbcocHdKq9BV3mVwaCvgUEqZUPBQt7IQOF4MMB+lcC+wR2hQNwIycAt7D5AKsoGP3gsDcBmQxZA6jPIvwuDMr6lTqE/UW1Sv6O+Uj/lAwTAbkhCQHaH+b9EWhE/
lpc_rms=-15.80
offset=716
sample=Alto_sustain_FF_B3.opus
</region>

<region>
hivel=127
key=B4
loop_end=282570
loop_mode=loop_continuous
loop_start=80852
loop_xfade=24149
lovel=0
lpc=EcPCQBomWcGqz3RBcTtxwWZie0EZbHXBYsxYQc+TLMHD4fNAfzeEwFolpj+H978/bilOwFNKeECYOqLA4dC8QEFHwcAc/cRAgyaxwCyukEC6SnzAoHN9QKLsJ8Bf3k8/
lpc_rms=-9.48
offset=17162
sample=Alto_sustain_FF_B4.opus
</region>

<region>
hivel=127
key=C#3
loop_end=277555
loop_mode=loop_continuous
loop_start=79417
loop_xfade=23720
lovel=0
lpc=gasCQZ2if8GbsV5BnToowZaIGkEObjfBrj9EQZJGUcGGlEJBqx4EwQer3UBuEt/AkrjMQIXfqsBkzltARz0tv8+68r0xkEm/PxjKPg0oXT8JebW/SmS+PwRS6b+eQ4M/
lpc_rms=-10.88
sample=Alto_sustain_FF_C#3.opus
</region>

<region>
hivel=127
key=C#4
loop_end=275363
loop_mode=loop_continuous
loop_start=78789
loop_xfade=23533
lovel=0
lpc=KLVNQU5R+8FXHxBCqqjxwQkHsEES4FDBa1mhQBmjKMAbMsw9kWXAQD/CEcHW1ANBklrHwKh/wEBLjNjA+LfDQJA/vcAfUUxAOY36P4VRbMCkS/E/dY2Uv0QTF0BdnJy/
lpc_rms=-12.64
offset=546
sample=Alto_sustain_FF_C#4.opus
</region>

<region>
hivel=127
key=C#5
loop_end=274943
loop_mode=loop_continuous
loop_start=78669
loop_xfade=23497
lovel=0
lpc=V2qGQNp/D8E9kS5BsbEvwdsdK0HauxrBPTjoQB9lisAvaAtAvRuBv5BJAj8iQaS8TaIqPu/iJr/c7vk+ze/QPraiab+3wOU/N3cZwGCOH0CArinAJ9tHQN4KJsBwyZk/
lpc_rms=-13.47
offset=16989
sample=Alto_sustain_FF_C#5.opus
</region>

<region>
hivel=127
key=C4
loop_end=269661
loop_mode=loop_continuous
loop_start=77158
loop_xfade=23045
lovel=0
lpc=DYeVQY51OcIgwURCYbwIwhjDrEHuvUPBMX2KQMvi1MArNDBBlXfCwN83Zz8Cfau/+s7zP8SYWj8XHtW/Tz1GvZWfPL9iakY+vJIyQFVal79jLDfANSPLP+bQ4z+5yIy/
lpc_rms=-14.43
offset=270
sample=Alto_sustain_FF_C4.opus
</region>

<region>
hivel=127
key=C5
loop_end=264778
loop_mode=loop_continuous
loop_start=75761
loop_xfade=22628
lovel=0
lpc=BtauQCFWR8FskmFBg+lIwR5eNUGFkBvBoDnWQD0bN8BxpPY+rWQRP57a0b8b00VA88pXwIAUK0D9Zi7AFT9TQGByOMA8ax1AzsjAvzmxiT5qMTk8KAG1PdkVw70NIi0+
lpc_rms=-10.66
offset=245
sample=Alto_sustain_FF_C5.opus
</region>

<region>
hivel=127
key=D#3
loop_end=271100
loop_mode=loop_continuous
loop_start=77570
loop_xfade=23168
lovel=0
lpc=0OWJQZUpK8Jz4T5C+14ewtrpBEIOdefBDeGoQQMNgMFvhEBBiw6Qv5vHnsCmFGNAnlIYwDmChkB/B3zANcKcvrtgO0B2XXDAjxKfQG7e88AG5QtB/8rawP57Y0BbUie/
lpc_rms=-13.52
offset=6815
sample=Alto_sustain_FF_D#3.opus
</region>

<region>
hivel=127
key=D#4
loop_end=272679
loop_mode=loop_continuous
loop_start=78021
loop_xfade=23303
lovel=0
lpc=D0IXQdLZv8Fyve1B+ULcwU6BtEFvb3jBAHDFQB2WJz8IYZXAsLYDQfWOGcFIBORAHlzyv5RjSb7vmpC/36b1P7G2LMCqLIJA0+GHwOXGIkB+4Kq/oYeCP8szTr+WbQg/
lpc_rms=-15.50
offset=137
sample=Alto_sustain_FF_D#4.opus
</region>

<region>
hivel=127
key=D#5
loop_end=255051
loop_mode=loop_continuous
loop_start=72977
loop_xfade=21797
lovel=0
lpc=HeJsQIeF58AFJQJBRujhwITHz0CNNsHAJoqeQHMnTsDfGsg/QG4uvww93z1urqo/C0UQwD57NECgITDA7GEkQAgj078Puag/12bJv8kJ3D9Qpva/JKIIQKALyr/6m08/
lpc_rms=-13.70
offset=202
sample=Alto_sustain_FF_D#5.opus
</region>

<region>
hivel=127
key=D3
loop_end=271955
loop_mode=loop_continuous
loop_start=77814
loop_xfade=23242
lovel=0
lpc=pUaEQXE7L8Ic2ltC589MwqwPLULp7QrCR2e/QV0UgcGXWC1B9KwqvpHrGsHlp0FBuUIHwZPWrUDXssDAPiHDQFeb478XgPe/NVUhQGUsTMAJXPI/TdPGP6SSi8BPCSxA
lpc_rms=-12.53
sample=Alto_sustain_FF_D3.opus
</region>

<region>
hivel=127
key=D4
loop_end=284539
loop_mode=loop_continuous
loop_start=81415
loop_xfade=24317
lovel=0
lpc=U5MrQcC51MG2pghC4JELwtCNBEI6tObBmZWlQXpTWcG08ApB6It+wDUrmT+r0ADAaNqEQLO1bcDPnLe9QKI2QPjVtsDLLwZBij4GwQ4M1UCFYazAQd+cQBqoFsBjawk/
lpc_rms=-13.58
offset=194
sample=Alto_sustain_FF_D4.opus
</region>

<region>
hivel=127
key=D5
loop_end=269496
loop_mode=loop_continuous
loop_start=77111
loop_xfade=23031
lovel=0
lpc=AY9WQHjlvsCG3cFA4rmvwA7dwkD3gdPAveirQJYCT8CvytU/obE0v/sMaD4IJ0c/4pr7v9KCN0Co8EnATOs4QCm8PcC5slNAnEQYwKg1uj8fUla/mTkmP5maXD5Yz7K+
lpc_rms=-15.92
sample=Alto_sustain_FF_D5.opus
</region>

<region>
hivel=127
key=E3
loop_end=269635
loop_mode=loop_continuous
loop_start=77150
loop_xfade=23043
lovel=0
lpc=mqqeQXohUMLOAXtCRe1WwtqMJEIQO+3By7CKQTBWHMFoxtFA2hZYP5zUAMGfOv5AzfojwCHIf74l0RfAT4wKQDOphkDZIMnAVRMBQPTrGD9aE+a/8ReXQKNLu8D8EzNA
lpc_rms=-12.83
offset=3811
sample=Alto_sustain_FF_E3.opus
</region>

<region>
hivel=127
key=E4
loop_end=272864
loop_mode=loop_continuous
loop_start=78074
loop_xfade=23319
lovel=0
lpc=6PriQB0+gsHf76BB1omgwViRlUFgBXzB0gwuQZom1sDNFVtAkYIFPgwryr/niqE/dGqRvTxGUr0ARHS/eJRQP5Lo/L6BbcA/jn0DwKaVGEDIwQTAkB39P7Y7d7/cg649
lpc_rms=-16.74
offset=110
sample=Alto_sustain_FF_E4.opus
</region>

<region>
hivel=127
key=E5
loop_end=261824
loop_mode=loop_continuous
loop_start=74915
loop_xfade=22376
lovel=0
lpc=zs2pQBy+KsFrrTVBGc8ZwbEwEkGg5hjBka0TQSkJ6sDPK6ZAA7g9wE0COz+NnwBAyC5cwLp7j0AL5JnAc0a9QMO46MBHzNZA6nF2wB102z/HHAHAdfVaQEa0JsBJtKA/
lpc_rms=-10.54
sample=Alto_sustain_FF_E5.opus
</region>

<region>
hivel=127
key=F#3
loop_end=272201
loop_mode=loop_continuous
loop_start=77885
loop_xfade=23263
lovel=0
lpc=MTDBQUqVf8Kdrp1C/s6RwuEvc0Kftj3CNX/3QZlahsGRYfNAv3nCQFFtgsHO1YFBmSbvwE7X+L8IhVFAvcHXv7b5UkBZ0TfAqxsCPfZA8j0Hhp0//3H6v/2Xkj4n31Q/
lpc_rms=-13.47
offset=4730
sample=Alto_sustain_FF_F#3.opus
</region>

<region>
hivel=127
key=F#4
loop_end=275478
loop_mode=loop_continuous
loop_start=78822
loop_xfade=23543
lovel=0
lpc=sok5QaAZ+MEp+CFC0R0owiTzLULjPSbCA4EIQm886sH019hBSeimwdTFcUHPM2jBJ299QV6CZcE1VC5B0hEXweJK5UAQbo6/S8FjwMvybUAprC/Ar5o3QHAzxL8fyzw9
lpc_rms=-10.64
offset=310
sample=Alto_sustain_FF_F#4.opus
</region>

<region>
hivel=127
key=F#5
loop_end=275451
loop_mode=loop_continuous
loop_start=78815
loop_xfade=23540
lovel=0
lpc=yiybQPpBD8GArw5Bl6fJwGIgkEClSw/AJcFnPxrrtT6FDyy/K6n4PQu7LT9bDaw+dg/evxSpSUBdyR/ANOe6P2AuKb+ZkUc/6VFevsgMmD+wmhPA/WlqQPcpWsCvDfM/
lpc_rms=-14.02
sample=Alto_sustain_FF_F#5.opus
</region>

<region>
hivel=127
key=F3
loop_end=284360
loop_mode=loop_continuous
loop_start=81364
loop_xfade=24302
lovel=0
lpc=enjlQWzypcKhqdxCXhnRwveaqEL60WrCzp8OQgdbmMEIbcVA5KszQTEVusGSabRBZERQwbV06T3AeIU/A7HDQEHZr8AokBRAEv45wM/Zj0DKF5vAcmamQCaptcDtTDBA
lpc_rms=-14.02
offset=4983
sample=Alto_sustain_FF_F3.opus
</region>

<region>
hivel=127
key=F4
loop_end=278020
loop_mode=loop_continuous
loop_start=79550
loop_xfade=23760
lovel=0
lpc=j72LQQnNR8JpbYdCPFiJwpsvgkKwClrClVMTQjXCx8HuNpxBKho1weY/sUCLHgDBFQJSQS6rT8GTI/dAyVWEvx0k4sA0t15BWQlIwcDXnkB+4qM+VIAiwBF+NEAh/YC/
lpc_rms=-9.94
offset=752
sample=Alto_sustain_FF_F4.opus
</region>

<region>
hivel=127
key=F5
loop_end=281771
loop_mode=loop_continuous
loop_start=80623
loop_xfade=24080
lovel=0
lpc=W8WLQKWN+MC7DwRB9ZW/wJJ8kECxCX7Ah8JhQPXsB8BIm7E/wf0svwXsoL5P12k/VRjbvtX0bz4Uizu/ID77PwFdAcCOOi1AY5YpwB5BQUC+UC7ArhI2QDW0/b8tXXk/
lpc_rms=-14.25
offset=669
sample=Alto_sustain_FF_F5.opus
</region>

<region>
hivel=127
key=G#3
loop_end=273331
loop_mode=loop_continuous
loop_start=78208
loop_xfade=23359
lovel=0
lpc=DrZdQeyQAsI+yQlCBbTUwVIfl0F0pDrBDVecQJCOtb/Jv7m/O/nLQB0B88AIzdVAC1GywBZqekB/anfAWhajQBMoo8CkpSs/7UyVQA7yj8DtlgJANNYwv1YFGz/5rZ++
lpc_rms=-14.09
offset=4146
sample=Alto_sustain_FF_G#3.opus
</region>

<region>
hivel=127
key=G#4
loop_end=268817
loop_mode=loop_continuous
loop_start=76916
loop_xfade=22973
lovel=0
lpc=Rl8GQQ8BlcGpHZpBYPeBwXuMZEGMuibB/AWUQD4IWb/GVynAZwPfQE4l8MBZPTpAwNwJQFzSdsCGSWZA02mFwMWpm0DEFzfAMoTOP8sEpr//Gx+/iaS4PzmNSL9oHNc+
lpc_rms=-10.94
offset=319
sample=Alto_sustain_FF_G#4.opus
</region>

<region>
hivel=127
key=G#5
loop_end=260700
loop_mode=loop_continuous
loop_start=74594
loop_xfade=22280
lovel=0
lpc=Tm4YQbCecsFvxndBkm8bwalV3kB6VFfAtwXkPxSi+D8Li1e+bgShvmkfuj/sMsA+mdz4vdX+LUAoTyrAWIVTQKU+Cj8zq3G/qr/SP8fXzz0gIjW/aDucQDnRn8Advo5A
lpc_rms=-14.43
sample=Alto_sustain_FF_G#5.opus
</region>

<region>
hivel=127
key=G3
loop_end=278257
loop_mode=loop_continuous
loop_start=79617
loop_xfade=23780
lovel=0
lpc=TIrEQf2egcLvRplCIPiBwoMBSkJScgzCQIqWQcfxHsFC3FlAvDDkQMBgK8GLqA5BsWK+wHGhPUCuClTA9LEAQWhTX8F7+EBBl8Vtvxxi9MDVgelAAK+/wLeT0EC7T0jA
lpc_rms=-12.45
offset=3199
sample=Alto_sustain_FF_G3.opus
</region>

<region>
hivel=127
key=G4
loop_end=278622
loop_mode=loop_continuous
loop_start=79722
loop_xfade=23811
lovel=0
lpc=muhIQXhdBMJFUiZC8McZwrgX/EHwk7DBk7k6QSpFxsBDm4hAJlWmv0FBDEA/KvXABU0xQSnREcGVowdAnECjQNbbHsHePkRBvi4SwRgRZ0DEAru+1GHoPsFxgL95YNc+
lpc_rms=-9.58
offset=5947
sample=Alto_sustain_FF_G4.opus
</region>

<region>
hivel=127
key=G5
loop_end=267935
loop_mode=loop_continuous
loop_start=76664
loop_xfade=22898
lovel=0
lpc=JKw5QSICksFpcoBB970twTBkBUEXaJXAdM7ZQCb1usBwPINA3ePevzrLl74KYF5A9qkrP3JmSb/bwFe/OkEuQN0gZMBDlaNACbSgv36nP0AUIKDAVtS1QDajocDS0KVA
lpc_rms=-15.29
sample=Alto_sustain_FF_G5.opus
</region>
</group>